

FULL_INFOs

100% - SYNCED GUARANTEED 

Source : DVD

My Media Player of Choice "VLC Media Player"

Spoken Language : English Only

Audio : 6 ~ Channels 

Subs Info :
 
http://www.subtitleseeker.com/0450506/Suburban+Mayhem/Subtitles/

15 Subtitles In 5 Languages Use Link Provided 
 
http://www.subtitleseeker.com/0450506/Suburban+Mayhem/Subtitles/

15 Subtitles In 5 Languages Only @ SubtitleSeeker
 
http://www.subtitleseeker.com/0450506/Suburban+Mayhem/Subtitles/

All .srt subs can be turned On/Off


General 

Complete name : Suburban Mayhem 2006.DVDRip.H.263.DivX . NVEE.divx 
Format : AVI 
Format/Info : Audio Video Interleave 
File size : 1 024 MiB 
Duration : 1h 21mn 
Overall bit rate : 1 758 Kbps 

Video 

ID : 0 
Format : MPEG-4 Visual 
Format settings, BVOP : 1 
Format settings, QPel : No 
Format settings, GMC : No warppoints 
Format settings, Matrix : Default (H.263) 
Muxing mode : Packed bitstream 
Codec ID : DX50 
Codec ID/Hint : DivX 5 
Duration : 1h 21mn 
Bit rate : 1 300 Kbps 
Width : 720 pixels 
Height : 400 pixels 
Display aspect ratio : 16:9 
Frame rate : 25.000 fps 
Color space : YUV 
Chroma subsampling : 4:2:0 
Bit depth : 8 bits 
Scan type : Progressive 
Compression mode : Lossy 
Bits/(Pixel*Frame) : 0.181 
Stream size : 757 MiB (74%) 
Title : Video 
Writing library : DivX 6.8.5 (UTC 2009-08-20) 

Audio 

ID : 1 
Format : AC-3 
Format/Info : Audio Coding 3 
Mode extension : CM (complete main) 
Format settings, Endianness : Big 
Codec ID : 2000 
Duration : 1h 21mn 
Bit rate mode : Constant 
Bit rate : 448 Kbps 
Channel(s) : 6 channels 
Channel positions : Front: L C R, Side: L R, LFE 
Sampling rate : 48.0 KHz 
Bit depth : 16 bits 
Compression mode : Lossy 
Stream size : 261 MiB (25%) 
Alignment : Split accross interleaves 
Interleave, duration : 40 ms (1.00 video frame) 
Interleave, preload duration : 500 ms 
Title : Audio 



Katrina (Emily Barclay) is a 19-year-old mum who's planning to get away with murder. Katrina lives in a world of petty crime, fast cars, manicures and BLOW-JOBS. A master manipulator of men living at home with her father in suburban Golden Grove-Australia, Katrina will stop at nothing to get what she wants - even murder. When her father threatens to contact social services and take away her child, Katrina sets in motion a plan to wreak suburban mayhem that will leave a community in shock and make Katrina infamous in a way even she never dreamed of.

SEE ME TORRENTS N' SEED ME TORRENTS !!!




PLEAASE SEED !!!

 (Thank You)



